<?xml version="1.0" encoding="UTF-8"?><svg id="Layer_1" xmlns="http://www.w3.org/2000/svg" viewBox="0 0 250 140.08"><defs><style>.cls-1,.cls-2{fill:#fff;}.cls-3{fill:#1ab57e;}.cls-4{fill:#e2e2e2;}.cls-5{fill:#1b1b1b;}.cls-6{fill:#dc4b82;}.cls-7{fill:#92c5eb;}.cls-8{fill:#3a3a3a;}.cls-9{fill:#3373b9;}.cls-10{fill:#1e9847;}.cls-11{fill:#f27eaf;}.cls-2{stroke:#cfcfce;stroke-miterlimit:10;stroke-width:.15px;}.cls-12{fill:#242323;}</style></defs><rect class="cls-1" width="250" height="140"/><rect class="cls-12" width="250" height="26.81"/><rect class="cls-12" x="23" y="35.68" width="204" height="40.6" rx="5" ry="5"/><path class="cls-2" d="M135,87h87c2.76,0,5,2.24,5,5v48h-97v-48c0-2.76,2.24-5,5-5Z"/><path class="cls-2" d="M28,86.66H115c2.76,0,5,2.24,5,5v48H23v-48c0-2.76,2.24-5,5-5Z"/><rect class="cls-1" x="33.45" y="43.6" width="123.87" height="7.91" rx="3.96" ry="3.96"/><rect class="cls-6" x="137.15" y="96.19" width="83.49" height="17.87" rx="4" ry="4"/><rect class="cls-9" x="208.38" y="121.98" width="32.94" height="12.51" rx="6.26" ry="6.26"/><circle class="cls-3" cx="227.46" cy="13.4" r="5.81"/><rect class="cls-2" x="29.76" y="96.19" width="83.49" height="17.87" rx="4" ry="4"/><rect class="cls-10" x="76" y="101.17" width="32.17" height="7.91" rx="3.96" ry="3.96"/><rect class="cls-1" x="15.18" y="9.45" width="50.48" height="7.91" rx="3.96" ry="3.96"/><rect class="cls-5" x="125" width="125" height="140"/><rect class="cls-12" width="250" height="26.81"/><path class="cls-12" d="M125,35.68h97c2.76,0,5,2.24,5,5v30.6c0,2.76-2.24,5-5,5H125V35.68h0Z"/><path class="cls-12" d="M135,87h87c2.76,0,5,2.24,5,5v48h-97v-48c0-2.76,2.24-5,5-5Z"/><path class="cls-4" d="M125,43.6h28.36c2.18,0,3.96,1.77,3.96,3.96h0c0,2.18-1.77,3.96-3.96,3.96h-28.36v-7.91h0Z"/><rect class="cls-11" x="137.15" y="96.19" width="83.49" height="17.87" rx="4" ry="4"/><rect class="cls-7" x="208.38" y="121.98" width="32.94" height="12.51" rx="6.26" ry="6.26"/><circle class="cls-3" cx="227.46" cy="13.4" r="5.81"/><rect class="cls-1" x="15.18" y="9.45" width="50.48" height="7.91" rx="3.96" ry="3.96"/><polygon class="cls-8" points="125.24 114.2 138.28 101.45 156.45 101.45 156.45 83.27 169.58 70.24 156.45 57.11 156.45 38.93 138.28 38.93 125.24 25.8 112.02 38.93 93.94 38.93 93.94 57.11 80.9 70.24 93.94 83.37 93.94 101.45 112.11 101.45 125.24 114.2"/><path class="cls-1" d="M125.12,50.22h-2.8l-12.75,36.44h6.76l2.85-9.42h12.08l2.95,9.42h6.95l-12.94-36.44h-3.1m-4.61,21.5l4.47-13.32h.48l4.66,13.32h-9.61Z"/></svg>