<svg id="Layer_1" data-name="Layer 1" xmlns="http://www.w3.org/2000/svg" viewBox="0 0 250 140"><defs><style>.cls-1{fill:#1b1b1b;}.cls-2{fill:#242323;}.cls-3{fill:#e2e2e2;}.cls-4{fill:#f27eaf;}.cls-5{fill:#92c5eb;}.cls-6{fill:#1ab57e;}.cls-7{fill:#282828;}.cls-8{fill:#80b9a6;}</style></defs><rect class="cls-1" width="250" height="140"/><rect class="cls-2" width="250" height="26.81"/><rect class="cls-2" x="23" y="35.68" width="204" height="40.6" rx="5"/><path class="cls-2" d="M135,87h87a5,5,0,0,1,5,5v48a0,0,0,0,1,0,0H130a0,0,0,0,1,0,0V92A5,5,0,0,1,135,87Z"/><path class="cls-2" d="M28,87h87a5,5,0,0,1,5,5v48a0,0,0,0,1,0,0H23a0,0,0,0,1,0,0V92A5,5,0,0,1,28,87Z"/><rect class="cls-3" x="33.45" y="43.6" width="123.87" height="7.91" rx="3.96"/><rect class="cls-4" x="137.15" y="96.19" width="83.49" height="17.87" rx="4"/><rect class="cls-5" x="208.38" y="121.98" width="32.94" height="12.51" rx="6.26"/><circle class="cls-6" cx="227.46" cy="13.4" r="5.81"/><rect class="cls-7" x="29.76" y="96.19" width="83.49" height="17.87" rx="4"/><rect class="cls-8" x="76" y="101.17" width="32.17" height="7.91" rx="3.96"/><rect class="cls-3" x="15.18" y="9.45" width="50.48" height="7.91" rx="3.96"/></svg>