<?xml version="1.0" encoding="utf-8"?>
<!-- Generator: Adobe Illustrator 24.1.2, SVG Export Plug-In . SVG Version: 6.00 Build 0)  -->
<svg version="1.1" id="Layer_1" xmlns="http://www.w3.org/2000/svg" xmlns:xlink="http://www.w3.org/1999/xlink" x="0px" y="0px"
	 viewBox="0 0 450 700" style="enable-background:new 0 0 450 700;" xml:space="preserve">
<style type="text/css">
	.st0{fill:#04B97F;}
	.st1{fill:none;stroke:#04B97F;stroke-width:3;stroke-linecap:round;stroke-miterlimit:10;}
</style>
<g>
	<path class="st0" d="M407.9,100.3c-16.4-2.5-32.9-4.9-49.6-7.5c0.5,3.2,2.7,5.4,3.9,8c0.4,1,1.7,2.1,0,3c-1.4,0.8-2-0.4-2.6-1.2
		c-1.7-2.4-3.5-4.7-5-7.3c-1.5-2.6,0.6-5.5,4.1-5.6c2.3,0,4.7,0.1,7,0.6c15.7,2.9,31.6,4.2,47.2,7.3c1.7,0.3,3,0.7,3.4,2.1
		c0.4,1.7,1,3.6-0.6,5.1c-5.9,5.6-11.8,11.2-17.6,16.9c-5.9,5.8-11.7,11.6-17.6,17.4c-1,1-2.1,2.1-3.4,2.8c-3,1.7-6.4,0.3-6.9-3
		c-0.6-4.9-1.3-9.9-1.4-14.8c-0.1-6.3,6.3-12.5,14.4-15c4.1-1.3,8.1-2.9,12.3-4.3c4.1-1.3,8.2-2.4,12.4-3.5
		C407.9,101.1,407.9,100.7,407.9,100.3z"/>
	<path class="st0" d="M345.4,129.3c-2,0-2.7-0.7-3-1.6c-0.5-1.2,0.5-1.7,1.4-1.9c6.6-1.3,12.6-4.2,18.9-6.1c1-0.3,1.9-0.2,2.4,0.8
		c0.5,1,0.2,2.2-0.5,2.4C357.8,124.8,351.1,127,345.4,129.3z"/>
	<path class="st0" d="M363,113.8c-0.2,1-0.8,1.5-1.6,1.7c-3.5,1-7.1,2-10.6,3c-1.1,0.3-2.3,0.5-2.8-0.9c-0.4-1.4,0.3-2.2,1.8-2.6
		c3.3-0.9,6.5-1.9,9.9-2.8C361.1,111.8,362.6,111.8,363,113.8z"/>
</g>
<path class="st1" d="M305.7,140.1c-78.3,18.9-127.4,58.4-123.9,94.8c1.6,17.2,16.2,46.2,49.8,51.1c35.3,5.2,75.9-17.2,73.3-31.8
	c-2.4-13.7-43.2-23.2-75.2-20.7c-55.1,4.2-83.5,42.5-85.6,45.5c-6,8.5-24.6,34.8-8.6,62.5c15.1,26,52,40.8,86.3,40.4
	c22.8-0.3,66.2-7.6,71.4-30.3c3.5-15.4-12.1-33.9-32.3-41.2c-55.6-20.1-184.3,30.5-194.6,102c-8,55.5,59,97.6,75.9,107.3
	c54.7,31.6,115.1,32.6,134.9,32.3"/>
</svg>
