<?xml version="1.0" encoding="utf-8"?>
<!-- Generator: Adobe Illustrator 24.1.2, SVG Export Plug-In . SVG Version: 6.00 Build 0)  -->
<svg version="1.1" xmlns="http://www.w3.org/2000/svg" xmlns:xlink="http://www.w3.org/1999/xlink" x="0px" y="0px"
	 viewBox="0 0 32 32" style="enable-background:new 0 0 32 32;" xml:space="preserve">
<style type="text/css">
	.st0{fill:#FFFFFF;}
	.st1{fill:#0180FF;}
	.st2{display:none;fill:#0180FF;}
</style>
<g id="Layer_2">
	<path class="st0" d="M5.04,15.44c1.51,1.16,4,2.38,5.67,2.39c1.34,0,1.75-0.5,1.75-1.19c-0.03-0.89-1.19-1.13-3.44-1.82
		c-2.79-0.84-5.01-2.74-5.01-6.01c0.01-5.11,4.08-7.8,9.25-7.79c3.36,0.01,6.2,1.41,7.77,3.34l-3.48,3.79
		c-1.27-1.07-2.91-1.91-4.54-1.91c-0.68,0-1.75,0.09-1.75,1.04c0,0.68,0.71,1.1,2.55,1.7c3,0.98,5.52,2.35,5.51,6.07
		c-0.01,5.17-3.81,8.16-8.92,8.15c-3.74-0.01-7-1.53-9.02-3.49L5.04,15.44z"/>
</g>
<g id="Layer_1">
	<path class="st1" d="M13,29.81c0,0-0.84-3.06-5.18-5.64l2.78-3.54c0,0,4.39,2.01,5.36,4.88"/>
	<path class="st1" d="M15.96,26.31c1.41,0,2.35,0.68,2.35,2.01c0,1.78-1.33,2.71-3.1,2.71c-1.33,0-2.33-0.63-2.33-1.96
		C12.88,27.27,14.28,26.31,15.96,26.31z"/>
	<g>
		<path class="st1" d="M18.05,29.54c0,0,3.74-7.84,13.01-13.39L27.68,13c0,0-9.04,5.32-12.48,13.31L18.05,29.54z"/>
		<path class="st1" d="M17.66,30.11c0,0,4.9-8.34,13.4-13.96l-1.29-1.2l-10.8,10.85l-2.53,2.67"/>
		<path class="st1" d="M17.84,29.89c0,0,0.8-1.18,1.24-1.88c0.12-0.19,0.21-0.35,0.25-0.44l-0.92-0.12l-0.42,0.06"/>
		<path class="st1" d="M18.81,27.78"/>
		<path class="st1" d="M18.98,28.17c0,0,0.27-0.38,0.59-0.87s0.32-0.48,0.32-0.48L19,26.68L18.98,28.17z"/>
		<path class="st1" d="M18.39,27.74"/>
		<path class="st1" d="M22.44,16.91c0,0-5.21,4.31-6.74,7.99l-0.26,1.67l1.54-0.64"/>
		<path class="st1" d="M18.15,29.44c0,0,1.39-2.01,2.29-3.28l-0.75-0.32l-1.29,0.65"/>
		<path class="st1" d="M17.46,27.71"/>
		<path class="st1" d="M18.7,28.64c0,0-0.6,0.99-0.95,1.37c-0.35,0.38-0.61,0.15-0.61,0.15l-0.29-0.47l-0.3-0.49"/>
		<polyline class="st1" points="19.3,27.78 18.21,29.41 17.75,29.13 17.41,29.1 		"/>
		<path class="st1" d="M13.03,29.82c0,0-0.43-1.01-0.59-1.26s0.2-0.62,0.2-0.62"/>
		<path class="st1" d="M11.62,27.4c0,0,0.77,1.06,0.98,1.53s0.63-0.26,0.63-0.26"/>
		<path class="st2" d="M13.01,29.85c0,0-0.17-0.42-0.21-0.52c-0.04-0.1,0.2-0.15,0.2-0.15"/>
	</g>
</g>
</svg>
