<svg id="Layer_1" data-name="Layer 1" xmlns="http://www.w3.org/2000/svg" viewBox="0 0 189.64 45.67"><defs><style>.cls-1{fill:#fff;}</style></defs><path class="cls-1" d="M10.08,39.38c1.95,1.56,5.2,3.22,7.38,3.26,1.75,0,2.31-.62,2.32-1.52,0-1.17-1.53-1.5-4.47-2.46-3.64-1.16-6.52-3.7-6.43-8,.12-6.7,5.52-10.14,12.3-10a13.2,13.2,0,0,1,10.13,4.55l-4.66,4.9a9.77,9.77,0,0,0-5.91-2.61c-.89,0-2.3.08-2.32,1.33,0,.89.91,1.45,3.31,2.28,3.91,1.36,7.18,3.21,7.09,8.08C28.69,46,23.63,49.81,16.93,49.68A17.23,17.23,0,0,1,5.18,44.9Z" transform="translate(-5.18 -4.48)"/><path class="cls-1" d="M48.2,47.23a18.61,18.61,0,0,1-9.55,2.92c-5.06,0-9-3-9-9.07,0-7.48,4.64-12.55,12.55-12.55,5.92,0,8.84,3,8,8.92H43.64c.23-1.91-.31-2.88-1.79-2.88-2.18,0-3.67,2.18-3.67,5.92,0,2.26,1,3.51,2.85,3.51a15,15,0,0,0,6-1.72Z" transform="translate(-5.18 -4.48)"/><path class="cls-1" d="M62.23,21.64l-1.48,8.88a9.08,9.08,0,0,1,5.73-2c4.24,0,6,2.42,5.3,6.94L69.4,49.69H61.49l2-12.2c.35-2,0-2.57-1.21-2.57a3.86,3.86,0,0,0-2.45,1.13l-2.3,13.64H49.65l4.67-28Z" transform="translate(-5.18 -4.48)"/><path class="cls-1" d="M90.72,47.93a20.17,20.17,0,0,1-9.15,2.22c-5.85,0-9-3.35-9-8.61,0-7.67,5-13,12.46-13,5.3,0,8.42,2.61,8.42,6.51,0,4.28-3,6.7-12.55,7.24.08.94,1.13,2.07,3,2.07a22.52,22.52,0,0,0,6.12-1.25Zm-4.6-12.39c0-1-.58-1.59-1.75-1.59-1.71,0-3.23,1.87-3.43,4.09C85.11,37.69,86.12,36.75,86.12,35.54Z" transform="translate(-5.18 -4.48)"/><path class="cls-1" d="M106.63,47.31a8.5,8.5,0,0,1-6.43,2.84c-4.4,0-6.7-2.88-6.7-8,0-9.43,5.72-13.6,11-13.6A6.19,6.19,0,0,1,109,30.32l1.45-8.68h7.9l-4.67,28.05h-6.86ZM108,35.93a2.86,2.86,0,0,0-2.38-1.09c-2.49,0-3.62,2.53-3.62,6,0,1.79.58,3.08,2.1,3.08a4.07,4.07,0,0,0,2.73-1Z" transform="translate(-5.18 -4.48)"/><path class="cls-1" d="M129.55,49.69,129,47.35a8.25,8.25,0,0,1-6.35,2.8c-4.36,0-6.23-2.57-5.53-6.85L119.5,29h7.94L125.3,41.7c-.23,1.48.12,2.22,1.32,2.22a3.81,3.81,0,0,0,2.46-1.05L131.42,29h7.87l-3.47,20.69Z" transform="translate(-5.18 -4.48)"/><path class="cls-1" d="M138.63,49.69l4.68-28h7.91l-4.68,28.05Z" transform="translate(-5.18 -4.48)"/><path class="cls-1" d="M162.64,42.17c1.44,1,4.13,2.26,5.85,2.26,1,0,1.4-.47,1.4-1.06,0-.85-.78-1-2.77-1.55-2.26-.67-5.37-2-5.37-5.69,0-5.1,5-7.64,9.62-7.64,3.47,0,7.09,1.25,8.69,2.77l-3.39,4.32A10.47,10.47,0,0,0,171.92,34c-.82,0-1.52.23-1.52,1s.74,1,2.53,1.6c2.88.85,5.57,1.87,5.57,5.57,0,5.34-4.4,8.06-9.9,8.06A14.3,14.3,0,0,1,159,46.76Z" transform="translate(-5.18 -4.48)"/><path class="cls-1" d="M157.3,49.69h-7.91L152.86,29h7.91Z" transform="translate(-5.18 -4.48)"/><path class="cls-1" d="M154.75,26.39s-1.1-4-6.76-7.35l3.63-4.62s5.72,2.62,7,6.37" transform="translate(-5.18 -4.48)"/><path class="cls-1" d="M158.6,21.83c1.84,0,3.07.89,3.07,2.62,0,2.32-1.74,3.53-4,3.53-1.74,0-3-.82-3-2.55C154.59,23.08,156.42,21.83,158.6,21.83Z" transform="translate(-5.18 -4.48)"/><path class="cls-1" d="M190.69,34.73l-1.36,8.1c-.12.9.11,1.29,1,1.29a7.38,7.38,0,0,0,1.64-.24l-.2,5.38a18.05,18.05,0,0,1-5.65.89c-4.2,0-5.53-2.34-4.94-5.76l1.59-9.66h-2.72l.74-4.37L184,29l1.64-6.31h7.13L191.66,29h3.16l-1,5.73Z" transform="translate(-5.18 -4.48)"/><path class="cls-1" d="M161.34,26A45.78,45.78,0,0,1,178.29,8.59l-4.41-4.11s-11.78,6.94-16.27,17.35Z" transform="translate(-5.18 -4.48)"/><path class="cls-1" d="M160.83,26.79a62.54,62.54,0,0,1,17.46-18.2L176.62,7,162.54,21.17l-3.3,3.48" transform="translate(-5.18 -4.48)"/><path class="cls-1" d="M161.74,28.11" transform="translate(-5.18 -4.48)"/><path class="cls-1" d="M161.06,26.5s1-1.54,1.62-2.46c.15-.25.27-.45.33-.57l-1.2-.15-.55.08" transform="translate(-5.18 -4.48)"/><path class="cls-1" d="M162.32,23.74" transform="translate(-5.18 -4.48)"/><path class="cls-1" d="M162.55,24.25l.76-1.13.43-.63-1.17-.18Z" transform="translate(-5.18 -4.48)"/><path class="cls-1" d="M161.78,23.69" transform="translate(-5.18 -4.48)"/><path class="cls-1" d="M167.05,9.58S160.26,15.2,158.26,20l-.34,2.18,2-.84" transform="translate(-5.18 -4.48)"/><path class="cls-1" d="M160.32,27.23" transform="translate(-5.18 -4.48)"/><path class="cls-1" d="M161.46,25.91s1.81-2.62,3-4.28l-1-.42-1.68.85" transform="translate(-5.18 -4.48)"/><path class="cls-1" d="M160.56,23.65" transform="translate(-5.18 -4.48)"/><path class="cls-1" d="M162.18,24.86a14,14,0,0,1-1.24,1.79c-.46.5-.79.2-.79.2l-.37-.61-.39-.65" transform="translate(-5.18 -4.48)"/><polyline class="cls-1" points="157.78 19.26 156.36 21.39 155.77 21.02 155.32 20.99"/><path class="cls-1" d="M154.73,26.37" transform="translate(-5.18 -4.48)"/><path class="cls-1" d="M154.78,26.4s-.56-1.32-.76-1.65.26-.81.26-.81" transform="translate(-5.18 -4.48)"/><path class="cls-1" d="M153,23.25a17.85,17.85,0,0,1,1.28,2c.28.62.83-.33.83-.33" transform="translate(-5.18 -4.48)"/><path class="cls-1" d="M154.74,26.39" transform="translate(-5.18 -4.48)"/><path class="cls-1" d="M154.68,26.44" transform="translate(-5.18 -4.48)"/><path class="cls-1" d="M154.77,26.44s-.23-.54-.28-.67.27-.2.27-.2" transform="translate(-5.18 -4.48)"/></svg>